<svg width="16" height="16" viewBox="0 0 16 16" fill="none" xmlns="http://www.w3.org/2000/svg">
<path d="M7.91667 15.8333C3.54429 15.8333 0 12.289 0 7.91667C0 3.54429 3.54429 0 7.91667 0C12.289 0 15.8333 3.54429 15.8333 7.91667C15.8333 12.289 12.289 15.8333 7.91667 15.8333ZM7.91667 14.25C9.59637 14.25 11.2073 13.5827 12.395 12.395C13.5827 11.2073 14.25 9.59637 14.25 7.91667C14.25 6.23696 13.5827 4.62605 12.395 3.43832C11.2073 2.25059 9.59637 1.58333 7.91667 1.58333C6.23696 1.58333 4.62605 2.25059 3.43832 3.43832C2.25059 4.62605 1.58333 6.23696 1.58333 7.91667C1.58333 9.59637 2.25059 11.2073 3.43832 12.395C4.62605 13.5827 6.23696 14.25 7.91667 14.25ZM7.125 10.2917H8.70833V11.875H7.125V10.2917ZM8.70833 8.98937V9.5H7.125V8.3125C7.125 8.10254 7.20841 7.90117 7.35687 7.75271C7.50534 7.60424 7.7067 7.52083 7.91667 7.52083C8.14156 7.52082 8.36183 7.45694 8.55184 7.33664C8.74185 7.21633 8.89379 7.04454 8.98998 6.84125C9.08618 6.63797 9.12267 6.41155 9.09521 6.18833C9.06775 5.96512 8.97746 5.7543 8.83487 5.58039C8.69227 5.40648 8.50322 5.27664 8.28972 5.20598C8.07621 5.13531 7.84703 5.12673 7.62884 5.18122C7.41064 5.23572 7.21241 5.35106 7.05721 5.51381C6.902 5.67657 6.7962 5.88005 6.75212 6.10058L5.19887 5.78946C5.29517 5.30819 5.51753 4.86113 5.84323 4.49396C6.16893 4.1268 6.58629 3.85271 7.05263 3.69971C7.51898 3.54671 8.01759 3.52029 8.4975 3.62315C8.9774 3.72601 9.42139 3.95446 9.78406 4.28515C10.1467 4.61584 10.4151 5.0369 10.5617 5.5053C10.7083 5.9737 10.7279 6.47262 10.6185 6.95108C10.5091 7.42953 10.2746 7.87035 9.939 8.22847C9.60338 8.5866 9.17869 8.84918 8.70833 8.98937Z" fill="white"/>
</svg>
